<?xml version="1.0" encoding="utf-8"?>
<!-- Generator: Adobe Illustrator 16.0.0, SVG Export Plug-In . SVG Version: 6.00 Build 0)  -->
<!DOCTYPE svg PUBLIC "-//W3C//DTD SVG 1.1//EN" "http://www.w3.org/Graphics/SVG/1.1/DTD/svg11.dtd">
<svg version="1.1" id="Layer_1" xmlns="http://www.w3.org/2000/svg" xmlns:xlink="http://www.w3.org/1999/xlink" x="0px" y="0px"
	 width="79px" height="73px" viewBox="0 0 79 73" enable-background="new 0 0 79 73" xml:space="preserve">
<g>
	<path fill="#FAA381" d="M38.29,32.548c3.752,0,7.037,1.953,9.037,4.897v-2.212c0.169,0.014,0.338,0.026,0.51,0.026
		c3.412,0,6.179-2.767,6.179-6.18c0-3.412-2.767-6.18-6.179-6.18c-0.747,0-1.46,0.139-2.123,0.382
		c-0.843-2.409-3.13-4.14-5.828-4.14c-1.865,0-3.534,0.831-4.667,2.138c-1.04-0.679-2.28-1.078-3.614-1.078
		c-3.656,0-6.62,2.963-6.62,6.619c0,2.854,1.811,5.279,4.343,6.208v4.302C31.327,34.452,34.587,32.548,38.29,32.548z"/>
	<path fill="#FAA381" d="M53.291,52.3l-7.176-4.953c1.38-2.396,1.653-5.391,0.458-8.11c-1.996-4.539-7.313-6.608-11.852-4.612
		c-4.539,1.995-6.607,7.311-4.613,11.85c1.996,4.537,7.313,6.605,11.852,4.611c1.321-0.58,2.425-1.448,3.288-2.49l7.179,4.955
		c0.554,0.383,1.195,0.412,1.434,0.066S53.846,52.682,53.291,52.3z M44.54,47.135c-2.363,3.424-7.055,4.281-10.479,1.92
		c-3.424-2.363-4.283-7.055-1.92-10.479c2.363-3.422,7.055-4.284,10.479-1.92C46.043,39.02,46.901,43.711,44.54,47.135z"/>
</g>
</svg>
