<?xml version="1.0" encoding="utf-8"?>
<!-- Generator: Adobe Illustrator 16.0.0, SVG Export Plug-In . SVG Version: 6.00 Build 0)  -->
<!DOCTYPE svg PUBLIC "-//W3C//DTD SVG 1.1//EN" "http://www.w3.org/Graphics/SVG/1.1/DTD/svg11.dtd">
<svg version="1.1" id="Layer_1" xmlns="http://www.w3.org/2000/svg" xmlns:xlink="http://www.w3.org/1999/xlink" x="0px" y="0px"
	 width="79px" height="73px" viewBox="0 0 79 73" enable-background="new 0 0 79 73" xml:space="preserve">
<g>
	<path fill="#FAA381" d="M48.439,56.014l-8.841-5.615l-9.038,5.369l3.008-9.156l-7.771-4.961l9.566-1.316l4.135-9.606l4.135,9.606
		l9.621,1.325l-7.826,4.856L48.439,56.014z M39.633,48.051l5.238,3.327l-1.82-5.742l4.438-2.754l-5.241-0.723L39.5,35.784
		l-2.744,6.375l-5.299,0.729l4.497,2.87l-1.828,5.563L39.633,48.051z"/>
	<path fill="#FAA381" d="M63.092,63H15.908c0,2,5.104,4.964,12.589,6.159C28.503,69.705,28.946,70,29.494,70h20
		c0.549,0,0.988-0.295,0.998-0.84C57.982,67.966,63.092,65,63.092,63z"/>
</g>
</svg>
