<?xml version="1.0" encoding="utf-8"?>
<!-- Generator: Adobe Illustrator 16.0.0, SVG Export Plug-In . SVG Version: 6.00 Build 0)  -->
<!DOCTYPE svg PUBLIC "-//W3C//DTD SVG 1.1//EN" "http://www.w3.org/Graphics/SVG/1.1/DTD/svg11.dtd">
<svg version="1.1" id="Layer_1" xmlns="http://www.w3.org/2000/svg" xmlns:xlink="http://www.w3.org/1999/xlink" x="0px" y="0px"
	 width="79px" height="73px" viewBox="0 0 79 73" enable-background="new 0 0 79 73" xml:space="preserve">
<g>
	
		<rect x="29.499" y="61.496" fill="#FF784F" stroke="#FAA381" stroke-width="3" stroke-linejoin="round" stroke-miterlimit="10" width="19.001" height="7"/>
	<g>
		<path fill="#FF784F" d="M63.092,53.996c0,8-10.563,14.254-23.592,14.254c-13.029,0-23.592-6.254-23.592-14.254H63.092z"/>
	</g>
	
		<rect x="21.992" y="36.171" transform="matrix(0.204 0.979 -0.979 0.204 56.2768 7.1927)" fill="#FF784F" width="3.447" height="4.064"/>
	<polygon fill="#FF784F" points="53.115,48.256 49.695,41.2 41.922,44.329 45.34,51.387 	"/>
	<path fill="#FF784F" d="M55.213,30.188c-1.578,0-2.855,1.278-2.855,2.857c0,1.577,1.277,2.856,2.855,2.856s2.857-1.279,2.857-2.856
		C58.07,31.466,56.791,30.188,55.213,30.188z M55.213,35.387c-1.293,0-2.342-1.049-2.342-2.342c0-1.294,1.049-2.342,2.342-2.342
		s2.342,1.048,2.342,2.342C57.555,34.338,56.506,35.387,55.213,35.387z"/>
	<path fill="#FF784F" d="M36.484,36.946c-2.344,0-4.246,2.021-4.246,4.512c0,2.493,1.902,4.513,4.246,4.513
		c2.346,0,4.247-2.021,4.247-4.513C40.73,38.967,38.83,36.946,36.484,36.946z M36.484,45.158c-1.922,0-3.48-1.656-3.48-3.7
		c0-2.042,1.559-3.7,3.48-3.7c1.923,0,3.481,1.657,3.481,3.7C39.966,43.502,38.407,45.158,36.484,45.158z"/>
	<polygon fill="#FF784F" stroke="#FFFFFF" stroke-miterlimit="10" points="29.582,36.946 26.707,41.541 32.314,44.596 35.189,40 	
		"/>
</g>
</svg>
