<?xml version="1.0" encoding="utf-8"?>
<!-- Generator: Adobe Illustrator 16.0.0, SVG Export Plug-In . SVG Version: 6.00 Build 0)  -->
<!DOCTYPE svg PUBLIC "-//W3C//DTD SVG 1.1//EN" "http://www.w3.org/Graphics/SVG/1.1/DTD/svg11.dtd">
<svg version="1.1" id="Layer_1" xmlns="http://www.w3.org/2000/svg" xmlns:xlink="http://www.w3.org/1999/xlink" x="0px" y="0px"
	 width="9px" height="13.333px" viewBox="0 0 9 13.333" enable-background="new 0 0 9 13.333" xml:space="preserve">
<g>
	<path fill="#FF931E" d="M7.595,6.183L2.225,1.11c-0.156-0.147-0.409-0.147-0.563,0c-0.159,0.147-0.159,0.386,0,0.535l5.09,4.812
		l-5.09,4.812c-0.159,0.148-0.159,0.387,0,0.535c0.075,0.074,0.178,0.11,0.28,0.11s0.205-0.036,0.283-0.11l5.37-5.073
		c0.078-0.076,0.117-0.174,0.114-0.273C7.712,6.358,7.673,6.259,7.595,6.183z"/>
	<path fill="#FF931E" d="M1.942,12.413c-0.241,0-0.465-0.09-0.631-0.254c-0.166-0.153-0.268-0.384-0.268-0.622
		c0-0.238,0.101-0.469,0.278-0.635l4.703-4.446L1.319,2.008C1.144,1.845,1.042,1.614,1.043,1.376c0-0.238,0.102-0.468,0.279-0.632
		c0.323-0.308,0.906-0.315,1.245,0.002L7.938,5.82c0.181,0.175,0.278,0.411,0.271,0.651c0.007,0.211-0.09,0.447-0.267,0.618
		l-5.375,5.077C2.401,12.325,2.178,12.413,1.942,12.413z"/>
</g>
</svg>
