<?xml version="1.0" encoding="utf-8"?>
<!-- Generator: Adobe Illustrator 16.0.0, SVG Export Plug-In . SVG Version: 6.00 Build 0)  -->
<!DOCTYPE svg PUBLIC "-//W3C//DTD SVG 1.1//EN" "http://www.w3.org/Graphics/SVG/1.1/DTD/svg11.dtd">
<svg version="1.1" id="Layer_1" xmlns="http://www.w3.org/2000/svg" xmlns:xlink="http://www.w3.org/1999/xlink" x="0px" y="0px"
	 width="79px" height="73px" viewBox="0 0 79 73" enable-background="new 0 0 79 73" xml:space="preserve">
<g>
	<path fill="#FAA381" d="M31.917,39.561c0.413,0.146,0.845,0.295,1.297,0.446c0.021,0.007,0.042,0.015,0.062,0.021
		c0.416,0.14,0.842,0.275,1.27,0.41c0.437,0.137,0.875,0.27,1.304,0.392c0.309,0.088,0.612,0.169,0.909,0.245
		c0.078,0.021,0.152,0.035,0.23,0.056c0.541,0.134,1.045,0.239,1.497,0.312c0.196,0.029,0.383,0.056,0.556,0.07
		c0.162,0.016,0.32,0.027,0.459,0.027c0.021,0,0.047-0.004,0.068-0.004c0.41-0.008,0.928-0.08,1.51-0.196
		c0.412-0.082,0.853-0.184,1.317-0.305c0.09-0.023,0.183-0.05,0.272-0.074c0.427-0.114,0.863-0.239,1.306-0.373
		c0.156-0.048,0.313-0.097,0.469-0.146c0.354-0.11,0.703-0.224,1.05-0.338c0.506-0.168,0.993-0.334,1.457-0.496
		c0.12-0.043,0.245-0.086,0.36-0.127l-0.229-0.59l0.109-0.604l-0.383-0.094l-1.451-3.717l-1.44,0.563l1.283,3.286l-0.968-0.57
		l-0.752,1.273l-0.467-1.469l-0.576,0.246l0.947-2.857l-1.468-0.487l-0.884,2.662l-1.008,0.37l0.398,1.46l-0.396,1.196l-1.814-3.008
		l-0.26,0.156l1.484-4.684l-1.475-0.467l-2.38,7.509l-0.448-0.202l2.295-6.238l-1.452-0.534l-2.164,5.877l-0.285-1.343l0.184-1.622
		l-0.546-0.084l-0.514-2.423l-1.514,0.321l0.959,4.523L31.917,39.561z"/>
	<path fill="#FAA381" d="M31.764,36.48l-1.545-0.06l-0.096,2.488c0.425,0.157,0.94,0.348,1.526,0.556L31.764,36.48z"/>
	<path fill="#FAA381" d="M49.355,38.73l-1.08-8.213l-1.533,0.201l1.125,8.563C48.473,39.063,48.984,38.871,49.355,38.73z"/>
	<path fill="#FAA381" d="M50,41.379c-0.025,0.01-0.063,0.021-0.107,0.039c-0.276,0.104-0.973,0.355-1.883,0.67
		c-0.402,0.141-0.844,0.289-1.316,0.445l0,0c-0.098,0.031-0.197,0.064-0.297,0.098V42.63c-0.469,0.153-0.953,0.308-1.449,0.459
		c-0.061,0.019-0.12,0.036-0.18,0.056c-0.429,0.129-0.856,0.254-1.281,0.373c-0.129,0.035-0.256,0.068-0.383,0.104l0,0
		c-0.451,0.122-0.892,0.232-1.312,0.327l0,0c-0.06,0.013-0.116,0.024-0.175,0.038c-0.643,0.14-1.223,0.24-1.703,0.277
		c-0.146,0.012-0.289,0.022-0.414,0.022c-0.061,0-0.135-0.009-0.201-0.011c-0.197-0.008-0.418-0.029-0.652-0.062
		c-0.016-0.002-0.031-0.004-0.047-0.006c-0.234-0.031-0.484-0.073-0.75-0.125c-0.436-0.084-0.903-0.19-1.393-0.313
		c-0.474-0.121-0.961-0.254-1.456-0.396c-0.009-0.003-0.019-0.006-0.028-0.009c-0.43-0.124-0.861-0.254-1.286-0.385l0,0
		c-0.29-0.09-0.573-0.181-0.853-0.271c-0.428-0.14-0.84-0.274-1.226-0.405c-1.212-0.408-2.164-0.755-2.501-0.879
		c-0.045-0.017-0.082-0.029-0.107-0.04c-0.024-0.009-0.039-0.014-0.039-0.014L30,55.688L31.039,70H39.5h8.461L49,55.682
		l1.039-14.438C50.039,41.244,50.023,41.37,50,41.379z"/>
</g>
</svg>
